PathFileType	4	(X/Y/Z)	test111.trc
DataRate	CameraRate	NumFrames	NumMarkers	Units	OrigDataRate	OrigDataStartFrame	OrigNumFrames
120	120	8	27	m	120	632	1010
Frame#	Time	RHip			RKnee			RAnkle			RBigToe			RSmallToe			RHeel			LHip			LKnee			LAnkle			LBigToe			LSmallToe			LHeel			Nose			REye			LEye			RShoulder			RElbow			RWrist			RThumb			RIndex			RPinky			LShoulder			LElbow			LWrist			LThumb			LIndex			LPinky		
		X	Y	Z	X	Y	Z	X	Y	Z	X	Y	Z	X	Y	Z	X	Y	Z	X	Y	Z	X	Y	Z	X	Y	Z	X	Y	Z	X	Y	Z	X	Y	Z	X	Y	Z	X	Y	Z	X	Y	Z	X	Y	Z	X	Y	Z	X	Y	Z	X	Y	Z	X	Y	Z	X	Y	Z	X	Y	Z	X	Y	Z	X	Y	Z	X	Y	Z	X	Y	Z	X	Y	Z
632	5.266666666666667	0.268	1.0	0.9	0.205	0.829	0.506	0.175	0.875	0.108	0.154	0.704	0.041	0.12	0.744	0.046	0.184	0.908	0.052	0.495	1.011	0.886	0.5	1.087	0.471	0.514	1.228	0.085	0.549	1.044	0.014	0.574	1.09	0.022	0.504	1.269	0.034	0.433	0.699	1.467	0.411	0.696	1.502	0.464	0.697	1.501	0.235	0.929	1.369	0.123	0.995	1.108	0.064	0.92	0.883	0.083	0.887	0.823	0.05	0.879	0.8	0.039	0.931	0.79	0.63	0.924	1.345	0.661	0.959	1.054	0.659	0.914	0.802	0.616	0.889	0.735	0.646	0.889	0.702	0.656	0.93	0.696
633	5.275	0.27	1.006	0.902	0.206	0.842	0.505	0.18	0.895	0.11	0.158	0.727	0.038	0.124	0.767	0.044	0.189	0.929	0.054	0.497	1.016	0.888	0.501	1.089	0.472	0.515	1.228	0.085	0.55	1.044	0.014	0.575	1.09	0.022	0.505	1.269	0.033	0.434	0.703	1.468	0.411	0.701	1.504	0.465	0.701	1.502	0.237	0.933	1.371	0.124	0.999	1.11	0.066	0.919	0.885	0.085	0.887	0.826	0.053	0.877	0.804	0.042	0.93	0.792	0.632	0.929	1.347	0.663	0.965	1.056	0.66	0.921	0.804	0.617	0.896	0.738	0.646	0.897	0.705	0.657	0.937	0.699
634	5.283333333333333	0.272	1.012	0.903	0.208	0.854	0.503	0.184	0.915	0.111	0.162	0.749	0.036	0.128	0.789	0.043	0.194	0.95	0.056	0.499	1.022	0.89	0.502	1.092	0.474	0.516	1.228	0.085	0.55	1.045	0.014	0.575	1.09	0.022	0.505	1.269	0.033	0.435	0.708	1.47	0.412	0.705	1.505	0.466	0.706	1.503	0.239	0.938	1.372	0.125	1.003	1.111	0.068	0.919	0.887	0.086	0.887	0.829	0.055	0.875	0.807	0.044	0.93	0.795	0.633	0.934	1.349	0.664	0.971	1.058	0.661	0.928	0.806	0.618	0.903	0.74	0.646	0.904	0.707	0.657	0.943	0.701
635	5.291666666666667	0.274	1.018	0.904	0.209	0.866	0.502	0.188	0.935	0.113	0.165	0.771	0.033	0.132	0.811	0.041	0.199	0.971	0.058	0.501	1.027	0.891	0.504	1.094	0.475	0.516	1.228	0.085	0.55	1.045	0.014	0.576	1.09	0.021	0.505	1.269	0.034	0.435	0.712	1.471	0.412	0.71	1.507	0.466	0.71	1.504	0.24	0.942	1.374	0.126	1.007	1.112	0.07	0.919	0.889	0.087	0.887	0.832	0.058	0.873	0.809	0.046	0.929	0.796	0.635	0.939	1.35	0.666	0.977	1.06	0.663	0.935	0.808	0.619	0.909	0.742	0.647	0.91	0.71	0.658	0.95	0.703
636	5.3	0.276	1.023	0.905	0.211	0.878	0.501	0.192	0.954	0.114	0.169	0.793	0.031	0.135	0.832	0.04	0.203	0.991	0.061	0.503	1.032	0.892	0.505	1.096	0.476	0.517	1.229	0.085	0.55	1.046	0.014	0.576	1.091	0.021	0.506	1.27	0.034	0.435	0.717	1.472	0.413	0.715	1.508	0.467	0.715	1.505	0.241	0.947	1.375	0.127	1.011	1.112	0.073	0.919	0.891	0.088	0.887	0.835	0.06	0.871	0.811	0.048	0.928	0.798	0.637	0.944	1.352	0.667	0.983	1.062	0.664	0.942	0.81	0.62	0.915	0.745	0.648	0.916	0.712	0.659	0.956	0.706
637	5.308333333333334	0.278	1.028	0.906	0.212	0.889	0.5	0.196	0.973	0.116	0.172	0.815	0.029	0.139	0.853	0.039	0.206	1.012	0.063	0.505	1.037	0.892	0.506	1.098	0.478	0.517	1.229	0.085	0.55	1.046	0.014	0.576	1.091	0.021	0.506	1.27	0.034	0.435	0.721	1.473	0.413	0.719	1.509	0.467	0.719	1.506	0.243	0.951	1.376	0.128	1.014	1.113	0.075	0.918	0.893	0.09	0.887	0.837	0.063	0.87	0.813	0.05	0.928	0.799	0.638	0.949	1.353	0.668	0.989	1.064	0.666	0.948	0.812	0.621	0.921	0.747	0.649	0.922	0.714	0.66	0.962	0.708
638	5.316666666666666	0.28	1.033	0.907	0.214	0.9	0.499	0.199	0.992	0.117	0.175	0.836	0.028	0.143	0.874	0.038	0.21	1.032	0.066	0.506	1.041	0.893	0.507	1.1	0.479	0.518	1.23	0.085	0.55	1.047	0.014	0.576	1.091	0.021	0.506	1.27	0.034	0.435	0.726	1.474	0.413	0.724	1.51	0.466	0.723	1.507	0.244	0.955	1.376	0.129	1.017	1.113	0.077	0.918	0.894	0.091	0.886	0.838	0.066	0.868	0.814	0.052	0.928	0.8	0.639	0.953	1.355	0.669	0.994	1.066	0.667	0.954	0.814	0.622	0.926	0.749	0.65	0.928	0.716	0.661	0.968	0.711
639	5.325	0.282	1.037	0.907	0.216	0.91	0.497	0.203	1.011	0.119	0.179	0.857	0.026	0.147	0.894	0.038	0.213	1.053	0.068	0.508	1.045	0.893	0.508	1.102	0.48	0.518	1.23	0.085	0.55	1.047	0.014	0.576	1.092	0.021	0.506	1.27	0.034	0.435	0.73	1.475	0.412	0.728	1.511	0.466	0.727	1.508	0.245	0.96	1.377	0.13	1.021	1.114	0.079	0.918	0.895	0.093	0.886	0.839	0.068	0.867	0.815	0.055	0.928	0.8	0.64	0.958	1.356	0.67	1.0	1.068	0.668	0.96	0.816	0.623	0.931	0.751	0.651	0.933	0.718	0.663	0.975	0.713
